<?xml version="1.0" encoding="utf-8"?>
<!-- Generator: Adobe Illustrator 14.0.0, SVG Export Plug-In . SVG Version: 6.00 Build 43363)  -->
<!DOCTYPE svg PUBLIC "-//W3C//DTD SVG 1.1//EN" "http://www.w3.org/Graphics/SVG/1.1/DTD/svg11.dtd">
<svg version="1.1" id="Layer_1" xmlns="http://www.w3.org/2000/svg" xmlns:xlink="http://www.w3.org/1999/xlink" x="0px" y="0px"
	 width="152px" height="20px" viewBox="0 0 152 20" enable-background="new 0 0 152 20" xml:space="preserve">
<g>
	<path fill="#FFFFFF" d="M5.765,20.339c-5.014,0-5.952-2.949-5.737-6.3h4.048c0,1.85,0.081,3.403,2.306,3.403
		c1.367,0,2.037-0.883,2.037-2.197c0-3.485-8.15-3.699-8.15-9.464c0-3.029,1.448-5.442,6.381-5.442c3.941,0,5.898,1.77,5.63,5.818
		H8.339c0-1.448-0.241-2.922-1.877-2.922c-1.314,0-2.091,0.723-2.091,2.064c0,3.673,8.15,3.351,8.15,9.437
		C12.521,19.75,8.848,20.339,5.765,20.339"/>
	<polygon fill="#FFFFFF" points="22.978,8.409 22.978,0.661 27.025,0.661 27.025,20.017 22.978,20.017 22.978,11.385 18.339,11.385 
		18.339,20.017 14.291,20.017 14.291,0.661 18.339,0.661 18.339,8.409 	"/>
	<path fill="#FFFFFF" d="M29.08,10.339c0-5.121,0-10,6.675-10c6.676,0,6.676,4.879,6.676,10c0,5.066,0,10-6.676,10
		C29.08,20.339,29.08,15.405,29.08,10.339 M38.329,10.339c0-4.96-0.294-7.104-2.574-7.104c-2.279,0-2.573,2.144-2.573,7.104
		s0.294,7.104,2.573,7.104C38.035,17.442,38.329,15.299,38.329,10.339"/>
	<polygon fill="#FFFFFF" points="42.874,0.661 47.029,0.661 49.549,14.253 49.603,14.253 52.659,0.661 57.432,0.661 60.327,14.253 
		60.38,14.253 62.794,0.661 66.761,0.661 62.472,20.017 57.995,20.017 54.965,5.862 54.912,5.862 51.56,20.017 47.164,20.017 	"/>
	<path fill="#FFFFFF" d="M67.982,0.661h6.756c5.309,0,6.301,3.539,6.301,9.57c0,2.977,0.455,9.786-6.462,9.786h-6.595V0.661z
		 M72.03,17.041h1.957c2.466,0,2.949-1.851,2.949-6.702c0-3.566,0-6.702-2.815-6.702H72.03V17.041z"/>
	<path fill="#FFFFFF" d="M82.832,10.339c0-5.121,0-10,6.676-10s6.676,4.879,6.676,10c0,5.066,0,10-6.676,10
		S82.832,15.405,82.832,10.339 M92.082,10.339c0-4.96-0.295-7.104-2.574-7.104s-2.572,2.144-2.572,7.104s0.293,7.104,2.572,7.104
		S92.082,15.299,92.082,10.339"/>
	<polygon fill="#FFFFFF" points="96.627,0.661 100.781,0.661 103.303,14.253 103.355,14.253 106.412,0.661 111.186,0.661 
		114.08,14.253 114.133,14.253 116.545,0.661 120.514,0.661 116.225,20.017 111.748,20.017 108.717,5.862 108.664,5.862 
		105.312,20.017 100.916,20.017 	"/>
	<polygon fill="#FFFFFF" points="121.711,20.017 121.711,0.661 127.18,0.661 132.326,14.065 132.381,14.065 132.381,0.661 
		136.16,0.661 136.16,20.017 130.826,20.017 125.545,5.862 125.49,5.862 125.49,20.017 	"/>
	<polygon fill="#FF00FF" points="137.725,0.661 142.336,0.661 145.098,7.015 147.805,0.661 152.014,0.661 147.188,10.231 
		152.094,20.017 147.51,20.017 144.535,13.342 141.559,20.017 137.375,20.017 142.389,9.884 	"/>
</g>
</svg>
