<?xml version="1.0" encoding="utf-8"?>
<!-- Generator: Adobe Illustrator 14.0.0, SVG Export Plug-In . SVG Version: 6.00 Build 43363)  -->
<!DOCTYPE svg PUBLIC "-//W3C//DTD SVG 1.1//EN" "http://www.w3.org/Graphics/SVG/1.1/DTD/svg11.dtd">
<svg version="1.1" id="Layer_1" xmlns="http://www.w3.org/2000/svg" xmlns:xlink="http://www.w3.org/1999/xlink" x="0px" y="0px"
	 width="16px" height="64px" viewBox="0 0 16 64" enable-background="new 0 0 16 64" fill="#ffffff" xml:space="preserve">
<path d="M1.348,52.933c0,0,2.319,7.26,5.235,5.359C6.402,53.22,1.348,52.933,1.348,52.933z"/>
<path d="M0.809,44.373c0,0,1.797,7.669,4.815,6.311C5.794,45.595,0.809,44.373,0.809,44.373z"/>
<path d="M0.352,35.453c0,0,1.797,7.666,4.815,6.31C5.337,36.672,0.352,35.453,0.352,35.453z"/>
<path d="M1.233,27.417c0,0,1.277,7.041,4.013,6.165C5.608,29.062,1.233,27.417,1.233,27.417z"/>
<path d="M2.368,18.437c0,0,0.561,6.905,3.18,6.738C6.285,21.022,2.368,18.437,2.368,18.437z"/>
<path d="M3.771,10.39c0,0,0.131,6.575,2.586,6.817C7.283,13.417,3.771,10.39,3.771,10.39z"/>
<path d="M6.015,3.537c0,0-0.804,6.492,1.532,7.664C8.978,7.839,6.015,3.537,6.015,3.537z"/>
<path d="M13.58,50.837c0,0-1.74,7.882-4.767,6.887C8.606,52.657,13.58,50.837,13.58,50.837z"/>
<path d="M12.084,43.498c0,0-1.388,8.051-4.458,7.422C7.193,45.902,12.084,43.498,12.084,43.498z"/>
<path d="M11.659,34.925c0,0-1.433,8.031-4.498,7.355C6.755,37.255,11.659,34.925,11.659,34.925z"/>
<path d="M11.403,28.334c0,0-1.997,6.744-4.616,5.388C6.897,29.178,11.403,28.334,11.403,28.334z"/>
<path d="M11.853,19.985c0,0-2.126,6.171-4.542,4.63C7.583,20.335,11.853,19.985,11.853,19.985z"/>
<path d="M12.736,12.099c0,0-2.016,5.799-4.284,4.334C8.716,12.405,12.736,12.099,12.736,12.099z"/>
<path d="M14.696,6.503c0,0-2.261,5.557-4.455,3.824C10.683,6.332,14.696,6.503,14.696,6.503z"/>
<path d="M10.895,63.52c-0.221,0.01-0.682-0.066-1.241-0.714c-1.028-1.189-1.863-3.675-2.481-7.386
	c-0.865-5.182-1.276-12.63-1.222-22.141c0-0.026-0.023-3.448,0.383-8.486c0.375-4.649,1.203-11.672,3.018-18.732
	c0,0,0.412-1.475,0.629-1.408C10.198,4.719,9.806,6.31,9.806,6.31C6.363,19.702,6.434,33.157,6.435,33.291
	C6.313,54.68,8.563,60.602,9.916,62.229c0.58,0.695,0.988,0.599,1.006,0.595l0.109,0.673C11.016,63.501,10.968,63.516,10.895,63.52
	L10.895,63.52z"/>
<path d="M11.415,0.284c0,0,0.472,5.207-1.697,5.237C8.552,2.454,11.415,0.284,11.415,0.284z"/>
</svg>
